<svg width="640" height="600" xmlns="http://www.w3.org/2000/svg" fill="none">

 <g>
  <title>Layer 1</title>
  <rect id="svg_1" transform="rotate(-112.308 473.618 202.382) skewX(0.001)" rx="12" fill="#F2F6FF" height="233.581" width="233.584"/>
  <rect id="svg_2" transform="rotate(69.852 -153.498 289.674)" rx="12" fill="#F2F6FF" height="166.512" width="166.514"/>
  <rect id="svg_3" transform="rotate(-127.213 395.307 178.712) skewX(0.001)" rx="12" fill="#E5EEFF" height="166.513" width="166.514"/>
  <path id="svg_4" clip-rule="evenodd" d="m170.414,444.345l5.897,-2.096l-15.848,-8.713l4.62,17.485l3.46,-5.214l4.143,5.302l1.871,-1.462l-4.143,-5.302z" fill-rule="evenodd" fill="#fff"/>
  <path id="svg_5" d="m176.458,442.663l0.923,-0.328l-0.858,-0.471l-15.848,-8.714l-0.9,-0.494l0.263,0.992l4.62,17.486l0.25,0.947l0.542,-0.817l3.122,-4.706l3.767,4.822l0.271,0.346l0.346,-0.271l1.872,-1.462l0.346,-0.27l-0.27,-0.347l-3.767,-4.821l5.321,-1.892z" stroke-width="0.88" stroke="#1A1A1A"/>
  <path id="svg_6" d="m92.5,144.5l463,0l0,324l-463,0l0,-324z" stroke="#E8E8E8" fill="#F4F4F4"/>
  <path id="svg_7" d="m93,145l462,0l0,31l-462,0l0,-31z" fill="#fff"/>
  <path id="svg_18" d="m138.408,230.398l362.939,0l0,233.915l-362.939,0l0,-233.915z" fill="#fff"/>
  <path id="svg_19" d="m169.393,266.754a2.845,2.845 0 0 1 2.845,-2.845l226.363,0a2.845,2.845 0 0 1 0,5.69l-226.363,0a2.845,2.845 0 0 1 -2.845,-2.845m0,15.177a2.845,2.845 0 0 1 2.845,-2.845l226.363,0a2.845,2.845 0 0 1 0,5.691l-226.363,0a2.845,2.845 0 0 1 -2.845,-2.846m0,16.441a2.845,2.845 0 0 1 2.845,-2.846l182.102,0a2.846,2.846 0 0 1 0,5.691l-182.102,0a2.845,2.845 0 0 1 -2.845,-2.845m0,48.054a2.845,2.845 0 0 1 2.845,-2.846l295.915,0a2.846,2.846 0 1 1 0,5.691l-295.915,0a2.845,2.845 0 0 1 -2.845,-2.845m0,13.277a2.844,2.844 0 0 1 2.845,-2.845l283.269,0a2.845,2.845 0 1 1 0,5.69l-283.269,0a2.845,2.845 0 0 1 -2.845,-2.845m0,13.279a2.845,2.845 0 0 1 2.845,-2.846l289.592,0a2.846,2.846 0 1 1 0,5.691l-289.592,0a2.845,2.845 0 0 1 -2.845,-2.845m0,13.279a2.845,2.845 0 0 1 2.845,-2.846l289.592,0a2.846,2.846 0 1 1 0,5.691l-289.592,0a2.845,2.845 0 0 1 -2.845,-2.845m0,13.275a2.845,2.845 0 0 1 2.845,-2.845l270.623,0a2.846,2.846 0 1 1 0,5.69l-270.623,0a2.844,2.844 0 0 1 -2.845,-2.845m0,13.279a2.845,2.845 0 0 1 2.845,-2.845l270.623,0a2.846,2.846 0 1 1 0,5.69l-270.623,0a2.845,2.845 0 0 1 -2.845,-2.845m0,13.279a2.844,2.844 0 0 1 2.845,-2.845l270.623,0a2.845,2.845 0 1 1 0,5.69l-270.623,0a2.845,2.845 0 0 1 -2.845,-2.845m0,13.279a2.845,2.845 0 0 1 2.845,-2.846l270.623,0a2.846,2.846 0 1 1 0,5.691l-270.623,0a2.845,2.845 0 0 1 -2.845,-2.845" fill="#E8E8E8"/>
  <path id="svg_20" clip-rule="evenodd" d="m341,451l33.572,20.604l-8.497,5.89l8.925,12.617l-8.498,5.889l-8.925,-12.617l-8.498,5.89l-8.079,-38.273z" fill-rule="evenodd" fill="#1A1A1A"/>
  <rect id="svg_21" rx="30.864" fill="#CDF" y="262.032" x="412.32" height="61.727" width="63.584"/>
  <path id="svg_22" d="m411.625,261.338l65.038,0l0,63.016l-65.038,0l0,-63.016z" stroke-width="0.464" stroke="#05F"/>
  <path id="svg_23" d="m410,259.713l3.713,0l0,3.713l-3.713,0l0,-3.713z" fill="#fff"/>
  <path id="svg_24" d="m410,259.713l0,-0.464l-0.464,0l0,0.464l0.464,0zm3.713,0l0.464,0l0,-0.464l-0.464,0l0,0.464zm0,3.713l0,0.464l0.464,0l0,-0.464l-0.464,0zm-3.713,0l-0.464,0l0,0.464l0.464,0l0,-0.464zm0,-3.249l3.713,0l0,-0.928l-3.713,0l0,0.928zm3.249,-0.464l0,3.713l0.928,0l0,-3.713l-0.928,0zm0.464,3.249l-3.713,0l0,0.928l3.713,0l0,-0.928zm-3.249,0.464l0,-3.713l-0.928,0l0,3.713l0.928,0z" fill="#05F"/>
  <path id="svg_25" d="m410,322.287l3.713,0l0,3.713l-3.713,0l0,-3.713z" fill="#fff"/>
  <path id="svg_26" d="m410,322.287l0,-0.464l-0.464,0l0,0.464l0.464,0zm3.713,0l0.464,0l0,-0.464l-0.464,0l0,0.464zm0,3.713l0,0.464l0.464,0l0,-0.464l-0.464,0zm-3.713,0l-0.464,0l0,0.464l0.464,0l0,-0.464zm0,-3.249l3.713,0l0,-0.928l-3.713,0l0,0.928zm3.249,-0.464l0,3.713l0.928,0l0,-3.713l-0.928,0zm0.464,3.249l-3.713,0l0,0.928l3.713,0l0,-0.928zm-3.249,0.464l0,-3.713l-0.928,0l0,3.713l0.928,0z" fill="#05F"/>
  <path id="svg_27" d="m442.287,322.287l3.713,0l0,3.713l-3.713,0l0,-3.713z" fill="#fff"/>
  <path id="svg_28" d="m442.287,322.287l0,-0.464l-0.464,0l0,0.464l0.464,0zm3.713,0l0.464,0l0,-0.464l-0.464,0l0,0.464zm0,3.713l0,0.464l0.464,0l0,-0.464l-0.464,0zm-3.713,0l-0.464,0l0,0.464l0.464,0l0,-0.464zm0,-3.249l3.713,0l0,-0.928l-3.713,0l0,0.928zm3.249,-0.464l0,3.713l0.928,0l0,-3.713l-0.928,0zm0.464,3.249l-3.713,0l0,0.928l3.713,0l0,-0.928zm-3.249,0.464l0,-3.713l-0.928,0l0,3.713l0.928,0z" fill="#05F"/>
  <path id="svg_29" d="m442.287,259.713l3.713,0l0,3.713l-3.713,0l0,-3.713z" fill="#fff"/>
  <path id="svg_30" d="m442.287,259.713l0,-0.464l-0.464,0l0,0.464l0.464,0zm3.713,0l0.464,0l0,-0.464l-0.464,0l0,0.464zm0,3.713l0,0.464l0.464,0l0,-0.464l-0.464,0zm-3.713,0l-0.464,0l0,0.464l0.464,0l0,-0.464zm0,-3.249l3.713,0l0,-0.928l-3.713,0l0,0.928zm3.249,-0.464l0,3.713l0.928,0l0,-3.713l-0.928,0zm0.464,3.249l-3.713,0l0,0.928l3.713,0l0,-0.928zm-3.249,0.464l0,-3.713l-0.928,0l0,3.713l0.928,0z" fill="#05F"/>
  <path id="svg_31" d="m474.574,291l3.713,0l0,3.713l-3.713,0l0,-3.713z" fill="#fff"/>
  <path id="svg_32" d="m474.574,291l0,-0.464l-0.464,0l0,0.464l0.464,0zm3.713,0l0.464,0l0,-0.464l-0.464,0l0,0.464zm0,3.713l0,0.464l0.464,0l0,-0.464l-0.464,0zm-3.713,0l-0.464,0l0,0.464l0.464,0l0,-0.464zm0,-3.249l3.713,0l0,-0.928l-3.713,0l0,0.928zm3.249,-0.464l0,3.713l0.928,0l0,-3.713l-0.928,0zm0.464,3.249l-3.713,0l0,0.928l3.713,0l0,-0.928zm-3.249,0.464l0,-3.713l-0.928,0l0,3.713l0.928,0z" fill="#05F"/>
  <path id="svg_33" d="m410,291l3.713,0l0,3.713l-3.713,0l0,-3.713z" fill="#fff"/>
  <path id="svg_34" d="m410,291l0,-0.464l-0.464,0l0,0.464l0.464,0zm3.713,0l0.464,0l0,-0.464l-0.464,0l0,0.464zm0,3.713l0,0.464l0.464,0l0,-0.464l-0.464,0zm-3.713,0l-0.464,0l0,0.464l0.464,0l0,-0.464zm0,-3.249l3.713,0l0,-0.928l-3.713,0l0,0.928zm3.249,-0.464l0,3.713l0.928,0l0,-3.713l-0.928,0zm0.464,3.249l-3.713,0l0,0.928l3.713,0l0,-0.928zm-3.249,0.464l0,-3.713l-0.928,0l0,3.713l0.928,0z" fill="#05F"/>
  <path id="svg_35" d="m474.574,322.287l3.713,0l0,3.713l-3.713,0l0,-3.713z" fill="#fff"/>
  <path id="svg_36" d="m474.574,322.287l0,-0.464l-0.464,0l0,0.464l0.464,0zm3.713,0l0.464,0l0,-0.464l-0.464,0l0,0.464zm0,3.713l0,0.464l0.464,0l0,-0.464l-0.464,0zm-3.713,0l-0.464,0l0,0.464l0.464,0l0,-0.464zm0,-3.249l3.713,0l0,-0.928l-3.713,0l0,0.928zm3.249,-0.464l0,3.713l0.928,0l0,-3.713l-0.928,0zm0.464,3.249l-3.713,0l0,0.928l3.713,0l0,-0.928zm-3.249,0.464l0,-3.713l-0.928,0l0,3.713l0.928,0z" fill="#05F"/>
  <path id="svg_37" d="m474.574,259.713l3.713,0l0,3.713l-3.713,0l0,-3.713z" fill="#fff"/>
  <path id="svg_38" d="m474.574,259.713l0,-0.464l-0.464,0l0,0.464l0.464,0zm3.713,0l0.464,0l0,-0.464l-0.464,0l0,0.464zm0,3.713l0,0.464l0.464,0l0,-0.464l-0.464,0zm-3.713,0l-0.464,0l0,0.464l0.464,0l0,-0.464zm0,-3.249l3.713,0l0,-0.928l-3.713,0l0,0.928zm3.249,-0.464l0,3.713l0.928,0l0,-3.713l-0.928,0zm0.464,3.249l-3.713,0l0,0.928l3.713,0l0,-0.928zm-3.249,0.464l0,-3.713l-0.928,0l0,3.713l0.928,0z" fill="#05F"/>
  <path id="svg_39" d="m173.004,309.838l39.038,0l0,26.016l-39.038,0l0,-26.016z" stroke-width="0.464" stroke="#05F"/>
  <path id="svg_40" d="m171.379,308.213l3.713,0l0,3.713l-3.713,0l0,-3.713z" fill="#fff"/>
  <path id="svg_41" d="m171.379,308.213l0,-0.464l-0.464,0l0,0.464l0.464,0zm3.713,0l0.464,0l0,-0.464l-0.464,0l0,0.464zm0,3.713l0,0.464l0.464,0l0,-0.464l-0.464,0zm-3.713,0l-0.464,0l0,0.464l0.464,0l0,-0.464zm0,-3.249l3.713,0l0,-0.928l-3.713,0l0,0.928zm3.249,-0.464l0,3.713l0.928,0l0,-3.713l-0.928,0zm0.464,3.249l-3.713,0l0,0.928l3.713,0l0,-0.928zm-3.249,0.464l0,-3.713l-0.928,0l0,3.713l0.928,0z" fill="#05F"/>
  <path id="svg_42" d="m171.379,333.787l3.713,0l0,3.713l-3.713,0l0,-3.713z" fill="#fff"/>
  <path id="svg_43" d="m171.379,333.787l0,-0.464l-0.464,0l0,0.464l0.464,0zm3.713,0l0.464,0l0,-0.464l-0.464,0l0,0.464zm0,3.713l0,0.464l0.464,0l0,-0.464l-0.464,0zm-3.713,0l-0.464,0l0,0.464l0.464,0l0,-0.464zm0,-3.249l3.713,0l0,-0.928l-3.713,0l0,0.928zm3.249,-0.464l0,3.713l0.928,0l0,-3.713l-0.928,0zm0.464,3.249l-3.713,0l0,0.928l3.713,0l0,-0.928zm-3.249,0.464l0,-3.713l-0.928,0l0,3.713l0.928,0z" fill="#05F"/>
  <path id="svg_44" d="m190.666,333.787l3.713,0l0,3.713l-3.713,0l0,-3.713z" fill="#fff"/>
  <path id="svg_45" d="m190.666,333.787l0,-0.464l-0.464,0l0,0.464l0.464,0zm3.713,0l0.464,0l0,-0.464l-0.464,0l0,0.464zm0,3.713l0,0.464l0.464,0l0,-0.464l-0.464,0zm-3.713,0l-0.464,0l0,0.464l0.464,0l0,-0.464zm0,-3.249l3.713,0l0,-0.928l-3.713,0l0,0.928zm3.249,-0.464l0,3.713l0.928,0l0,-3.713l-0.928,0zm0.464,3.249l-3.713,0l0,0.928l3.713,0l0,-0.928zm-3.249,0.464l0,-3.713l-0.928,0l0,3.713l0.928,0z" fill="#05F"/>
  <path id="svg_46" d="m190.666,308.213l3.713,0l0,3.713l-3.713,0l0,-3.713z" fill="#fff"/>
  <path id="svg_47" d="m190.666,308.213l0,-0.464l-0.464,0l0,0.464l0.464,0zm3.713,0l0.464,0l0,-0.464l-0.464,0l0,0.464zm0,3.713l0,0.464l0.464,0l0,-0.464l-0.464,0zm-3.713,0l-0.464,0l0,0.464l0.464,0l0,-0.464zm0,-3.249l3.713,0l0,-0.928l-3.713,0l0,0.928zm3.249,-0.464l0,3.713l0.928,0l0,-3.713l-0.928,0zm0.464,3.249l-3.713,0l0,0.928l3.713,0l0,-0.928zm-3.249,0.464l0,-3.713l-0.928,0l0,3.713l0.928,0z" fill="#05F"/>
  <path id="svg_48" d="m209.953,321.5l3.713,0l0,3.713l-3.713,0l0,-3.713z" fill="#fff"/>
  <path id="svg_49" d="m209.953,321.5l0,-0.464l-0.464,0l0,0.464l0.464,0zm3.713,0l0.464,0l0,-0.464l-0.464,0l0,0.464zm0,3.713l0,0.464l0.464,0l0,-0.464l-0.464,0zm-3.713,0l-0.464,0l0,0.464l0.464,0l0,-0.464zm0,-3.249l3.713,0l0,-0.928l-3.713,0l0,0.928zm3.249,-0.464l0,3.713l0.928,0l0,-3.713l-0.928,0zm0.464,3.249l-3.713,0l0,0.928l3.713,0l0,-0.928zm-3.249,0.464l0,-3.713l-0.928,0l0,3.713l0.928,0z" fill="#05F"/>
  <path id="svg_50" d="m171.379,321.5l3.713,0l0,3.713l-3.713,0l0,-3.713z" fill="#fff"/>
  <path id="svg_51" d="m171.379,321.5l0,-0.464l-0.464,0l0,0.464l0.464,0zm3.713,0l0.464,0l0,-0.464l-0.464,0l0,0.464zm0,3.713l0,0.464l0.464,0l0,-0.464l-0.464,0zm-3.713,0l-0.464,0l0,0.464l0.464,0l0,-0.464zm0,-3.249l3.713,0l0,-0.928l-3.713,0l0,0.928zm3.249,-0.464l0,3.713l0.928,0l0,-3.713l-0.928,0zm0.464,3.249l-3.713,0l0,0.928l3.713,0l0,-0.928zm-3.249,0.464l0,-3.713l-0.928,0l0,3.713l0.928,0z" fill="#05F"/>
  <path id="svg_52" d="m209.953,333.787l3.713,0l0,3.713l-3.713,0l0,-3.713z" fill="#fff"/>
  <path id="svg_53" d="m209.953,333.787l0,-0.464l-0.464,0l0,0.464l0.464,0zm3.713,0l0.464,0l0,-0.464l-0.464,0l0,0.464zm0,3.713l0,0.464l0.464,0l0,-0.464l-0.464,0zm-3.713,0l-0.464,0l0,0.464l0.464,0l0,-0.464zm0,-3.249l3.713,0l0,-0.928l-3.713,0l0,0.928zm3.249,-0.464l0,3.713l0.928,0l0,-3.713l-0.928,0zm0.464,3.249l-3.713,0l0,0.928l3.713,0l0,-0.928zm-3.249,0.464l0,-3.713l-0.928,0l0,3.713l0.928,0z" fill="#05F"/>
  <path id="svg_54" d="m209.953,308.213l3.713,0l0,3.713l-3.713,0l0,-3.713z" fill="#fff"/>
  <path id="svg_55" d="m209.953,308.213l0,-0.464l-0.464,0l0,0.464l0.464,0zm3.713,0l0.464,0l0,-0.464l-0.464,0l0,0.464zm0,3.713l0,0.464l0.464,0l0,-0.464l-0.464,0zm-3.713,0l-0.464,0l0,0.464l0.464,0l0,-0.464zm0,-3.249l3.713,0l0,-0.928l-3.713,0l0,0.928zm3.249,-0.464l0,3.713l0.928,0l0,-3.713l-0.928,0zm0.464,3.249l-3.713,0l0,0.928l3.713,0l0,-0.928zm-3.249,0.464l0,-3.713l-0.928,0l0,3.713l0.928,0z" fill="#05F"/>
  <path id="svg_56" d="m182.361,316.386a45,45 0 0 0 -0.022,1.425l0,3.431q0,0.713 0.022,1.437l1.025,0.123l0,0.456l-3.141,0l0,-0.456l1.024,-0.123q0.023,-0.69 0.023,-1.414l0,-1.56l-3.632,0l0,1.548q0,0.724 0.023,1.426l1.036,0.123l0,0.456l-3.153,0l0,-0.456l1.025,-0.123q0.022,-0.702 0.022,-1.414l0,-3.442q0,-0.714 -0.022,-1.437l-1.025,-0.123l0,-0.456l3.153,0l0,0.456l-1.036,0.123q-0.023,0.69 -0.023,1.392l0,1.404l3.632,0l0,-1.393q0,-0.702 -0.023,-1.403l-1.024,-0.123l0,-0.456l3.141,0l0,0.456l-1.025,0.123zm5.096,3.698q0.401,0 0.535,-0.167a0.64,0.64 0 0 0 0.133,-0.412q0,-0.234 -0.1,-0.446a1.2,1.2 0 0 0 -0.256,-0.39q-0.156,-0.167 -0.379,-0.267a1.1,1.1 0 0 0 -0.468,-0.1q-0.233,0 -0.49,0.1a1.2,1.2 0 0 0 -0.456,0.312a2,2 0 0 0 -0.357,0.557a2.7,2.7 0 0 0 -0.189,0.813l2.027,0zm-2.049,0.479q0.021,1.035 0.512,1.593q0.49,0.557 1.292,0.557q0.536,0 0.891,-0.223a2.8,2.8 0 0 0 0.657,-0.579l0.268,0.211a2.3,2.3 0 0 1 -0.836,0.958q-0.535,0.345 -1.303,0.345a2.7,2.7 0 0 1 -1.025,-0.189a2.14,2.14 0 0 1 -0.779,-0.546a2.6,2.6 0 0 1 -0.502,-0.88a3.5,3.5 0 0 1 -0.178,-1.147q0,-0.635 0.201,-1.158q0.2,-0.535 0.545,-0.914q0.357,-0.378 0.825,-0.59t0.991,-0.212q0.435,0 0.813,0.145q0.39,0.146 0.669,0.423q0.278,0.278 0.434,0.68q0.167,0.4 0.167,0.902a2.4,2.4 0 0 1 -0.078,0.624l-3.564,0zm7.296,2.294l0,0.401l-2.741,0l0,-0.401l0.88,-0.156q0.011,-0.456 0.011,-0.891q0.012,-0.445 0.012,-0.891l0,-4.778l-0.914,-0.112l0,-0.39l1.738,-0.501l0.156,0.089l-0.045,1.582l0,5.001l0.023,0.891l0.88,0.156zm3.529,0l0,0.401l-2.74,0l0,-0.401l0.88,-0.156q0.01,-0.456 0.011,-0.891q0.011,-0.445 0.011,-0.891l0,-4.778l-0.913,-0.112l0,-0.39l1.738,-0.501l0.155,0.089l-0.044,1.582l0,5.001l0.022,0.891l0.88,0.156zm3.563,-4.555q-0.735,0 -1.125,0.601q-0.39,0.59 -0.39,1.727q0,1.125 0.39,1.715q0.39,0.579 1.125,0.579q0.724,0 1.114,-0.579q0.39,-0.59 0.39,-1.715q0,-1.137 -0.39,-1.727q-0.39,-0.601 -1.114,-0.601m0,-0.513q0.478,0 0.936,0.19q0.468,0.177 0.824,0.545q0.357,0.357 0.579,0.891q0.223,0.523 0.223,1.215q0,0.69 -0.223,1.214a2.4,2.4 0 0 1 -1.403,1.403a2.6,2.6 0 0 1 -0.936,0.178q-0.49,0 -0.958,-0.178a2.4,2.4 0 0 1 -0.813,-0.523a2.7,2.7 0 0 1 -0.579,-0.88a3.2,3.2 0 0 1 -0.212,-1.214q0,-0.692 0.212,-1.215q0.222,-0.534 0.579,-0.891q0.368,-0.368 0.824,-0.545q0.457,-0.19 0.947,-0.19m4.888,5.636q-0.3,0 -0.512,-0.211a0.73,0.73 0 0 1 -0.212,-0.513q0,-0.29 0.212,-0.501a0.68,0.68 0 0 1 0.512,-0.223q0.302,0 0.501,0.223a0.68,0.68 0 0 1 0.212,0.501q0,0.29 -0.212,0.513a0.66,0.66 0 0 1 -0.501,0.211m0,-7.786q0.29,0 0.457,0.168q0.178,0.166 0.178,0.534q0,0.313 -0.078,1.069l-0.2,1.928l-0.156,1.514l-0.412,0l-0.145,-1.514q-0.123,-1.17 -0.212,-1.928a12,12 0 0 1 -0.078,-1.069q0,-0.368 0.178,-0.534a0.66,0.66 0 0 1 0.468,-0.168" fill="#333"/>
  <path id="svg_57" d="m260.242,393.783l96.038,0l0,38.016l-96.038,0l0,-38.016z" stroke-width="0.464" stroke="#05F"/>
  <path id="svg_58" d="m258.617,392.159l3.713,0l0,3.713l-3.713,0l0,-3.713z" fill="#fff"/>
  <path id="svg_59" d="m258.617,392.159l0,-0.464l-0.464,0l0,0.464l0.464,0zm3.713,0l0.464,0l0,-0.464l-0.464,0l0,0.464zm0,3.713l0,0.464l0.464,0l0,-0.464l-0.464,0zm-3.713,0l-0.464,0l0,0.464l0.464,0l0,-0.464zm0,-3.249l3.713,0l0,-0.928l-3.713,0l0,0.928zm3.249,-0.464l0,3.713l0.928,0l0,-3.713l-0.928,0zm0.464,3.249l-3.713,0l0,0.928l3.713,0l0,-0.928zm-3.249,0.464l0,-3.713l-0.928,0l0,3.713l0.928,0z" fill="#05F"/>
  <path id="svg_60" d="m258.617,429.733l3.713,0l0,3.713l-3.713,0l0,-3.713z" fill="#fff"/>
  <path id="svg_61" d="m258.617,429.733l0,-0.464l-0.464,0l0,0.464l0.464,0zm3.713,0l0.464,0l0,-0.464l-0.464,0l0,0.464zm0,3.713l0,0.464l0.464,0l0,-0.464l-0.464,0zm-3.713,0l-0.464,0l0,0.464l0.464,0l0,-0.464zm0,-3.249l3.713,0l0,-0.928l-3.713,0l0,0.928zm3.249,-0.464l0,3.713l0.928,0l0,-3.713l-0.928,0zm0.464,3.249l-3.713,0l0,0.928l3.713,0l0,-0.928zm-3.249,0.464l0,-3.713l-0.928,0l0,3.713l0.928,0z" fill="#05F"/>
  <path id="svg_62" d="m305.904,429.733l3.713,0l0,3.713l-3.713,0l0,-3.713z" fill="#fff"/>
  <path id="svg_63" d="m305.904,429.733l0,-0.464l-0.464,0l0,0.464l0.464,0zm3.713,0l0.464,0l0,-0.464l-0.464,0l0,0.464zm0,3.713l0,0.464l0.464,0l0,-0.464l-0.464,0zm-3.713,0l-0.464,0l0,0.464l0.464,0l0,-0.464zm0,-3.249l3.713,0l0,-0.928l-3.713,0l0,0.928zm3.249,-0.464l0,3.713l0.928,0l0,-3.713l-0.928,0zm0.464,3.249l-3.713,0l0,0.928l3.713,0l0,-0.928zm-3.249,0.464l0,-3.713l-0.928,0l0,3.713l0.928,0z" fill="#05F"/>
  <path id="svg_64" d="m305.904,392.159l3.713,0l0,3.713l-3.713,0l0,-3.713z" fill="#fff"/>
  <path id="svg_65" d="m305.904,392.159l0,-0.464l-0.464,0l0,0.464l0.464,0zm3.713,0l0.464,0l0,-0.464l-0.464,0l0,0.464zm0,3.713l0,0.464l0.464,0l0,-0.464l-0.464,0zm-3.713,0l-0.464,0l0,0.464l0.464,0l0,-0.464zm0,-3.249l3.713,0l0,-0.928l-3.713,0l0,0.928zm3.249,-0.464l0,3.713l0.928,0l0,-3.713l-0.928,0zm0.464,3.249l-3.713,0l0,0.928l3.713,0l0,-0.928zm-3.249,0.464l0,-3.713l-0.928,0l0,3.713l0.928,0z" fill="#05F"/>
  <path id="svg_66" d="m354.191,411.446l3.713,0l0,3.713l-3.713,0l0,-3.713z" fill="#fff"/>
  <path id="svg_67" d="m354.191,411.446l0,-0.464l-0.464,0l0,0.464l0.464,0zm3.713,0l0.464,0l0,-0.464l-0.464,0l0,0.464zm0,3.713l0,0.464l0.464,0l0,-0.464l-0.464,0zm-3.713,0l-0.464,0l0,0.464l0.464,0l0,-0.464zm0,-3.249l3.713,0l0,-0.928l-3.713,0l0,0.928zm3.249,-0.464l0,3.713l0.928,0l0,-3.713l-0.928,0zm0.464,3.249l-3.713,0l0,0.928l3.713,0l0,-0.928zm-3.248,0.464l0,-3.713l-0.929,0l0,3.713l0.929,0z" fill="#05F"/>
  <path id="svg_68" d="m258.617,411.446l3.713,0l0,3.713l-3.713,0l0,-3.713z" fill="#fff"/>
  <path id="svg_69" d="m258.617,411.446l0,-0.464l-0.464,0l0,0.464l0.464,0zm3.713,0l0.464,0l0,-0.464l-0.464,0l0,0.464zm0,3.713l0,0.464l0.464,0l0,-0.464l-0.464,0zm-3.713,0l-0.464,0l0,0.464l0.464,0l0,-0.464zm0,-3.249l3.713,0l0,-0.928l-3.713,0l0,0.928zm3.249,-0.464l0,3.713l0.928,0l0,-3.713l-0.928,0zm0.464,3.249l-3.713,0l0,0.928l3.713,0l0,-0.928zm-3.249,0.464l0,-3.713l-0.928,0l0,3.713l0.928,0z" fill="#05F"/>
  <path id="svg_70" d="m354.191,429.733l3.713,0l0,3.713l-3.713,0l0,-3.713z" fill="#fff"/>
  <path id="svg_71" d="m354.191,429.733l0,-0.464l-0.464,0l0,0.464l0.464,0zm3.713,0l0.464,0l0,-0.464l-0.464,0l0,0.464zm0,3.713l0,0.464l0.464,0l0,-0.464l-0.464,0zm-3.713,0l-0.464,0l0,0.464l0.464,0l0,-0.464zm0,-3.249l3.713,0l0,-0.928l-3.713,0l0,0.928zm3.249,-0.464l0,3.713l0.928,0l0,-3.713l-0.928,0zm0.464,3.249l-3.713,0l0,0.928l3.713,0l0,-0.928zm-3.248,0.464l0,-3.713l-0.929,0l0,3.713l0.929,0z" fill="#05F"/>
  <path id="svg_72" d="m354.191,392.159l3.713,0l0,3.713l-3.713,0l0,-3.713z" fill="#fff"/>
  <path id="svg_73" d="m354.191,392.159l0,-0.464l-0.464,0l0,0.464l0.464,0zm3.713,0l0.464,0l0,-0.464l-0.464,0l0,0.464zm0,3.713l0,0.464l0.464,0l0,-0.464l-0.464,0zm-3.713,0l-0.464,0l0,0.464l0.464,0l0,-0.464zm0,-3.249l3.713,0l0,-0.928l-3.713,0l0,0.928zm3.249,-0.464l0,3.713l0.928,0l0,-3.713l-0.928,0zm0.464,3.249l-3.713,0l0,0.928l3.713,0l0,-0.928zm-3.248,0.464l0,-3.713l-0.929,0l0,3.713l0.929,0z" fill="#05F"/>
  <path id="svg_74" clip-rule="evenodd" d="m341.435,396.271c-3.921,0.909 -7.737,2.403 -10.615,3.831c-1.463,0.725 -3.029,1.538 -4.565,2.461c0.538,2.015 0.623,4.329 0.577,6.619c-0.034,1.719 -0.896,4.532 -2.358,6.635c-0.735,1.056 -1.648,1.973 -2.727,2.47c-1.1,0.505 -2.342,0.558 -3.662,-0.071c-1.444,-0.688 -1.848,-2.307 -1.851,-3.787c-0.003,-1.508 0.402,-3.086 0.812,-4.007c1.559,-3.508 4.765,-6.186 8.115,-8.277c-0.43,-1.279 -1.081,-2.359 -2.042,-3.165c-1.042,-0.873 -2.489,-1.459 -4.516,-1.591c-4.132,-0.269 -8.432,0.823 -12.301,2.831c5.292,3.679 6.871,10.843 7.038,16.932c0.088,3.233 -0.704,6.588 -2.49,9.155c-1.798,2.583 -4.594,4.351 -8.44,4.373c-2.408,0.015 -4.234,-1.247 -5.603,-2.94c-1.188,-1.47 -2.058,-3.295 -2.699,-4.985c-1.55,1.671 -3.652,3.264 -5.969,4.299c-2.486,1.111 -5.263,1.597 -7.881,0.788c-1.703,-0.526 -2.786,-1.821 -3.421,-3.449c-0.631,-1.618 -0.836,-3.6 -0.781,-5.604c0.109,-3.997 1.258,-8.253 2.364,-10.218c2.065,-3.668 5.311,-6.633 9.088,-8.539a16,16 0 0 0 -3.254,-0.602c-10.003,-0.813 -19.081,2.915 -22.881,12.558a0.464,0.464 0 0 1 -0.864,-0.341c3.996,-10.139 13.549,-13.977 23.82,-13.143a16.6,16.6 0 0 1 4.4,0.957c4.28,-1.847 9.142,-2.369 13.719,-1.055c1.079,0.31 2.061,0.729 2.952,1.242c4.109,-2.23 8.76,-3.478 13.263,-3.185c2.182,0.142 3.83,0.78 5.053,1.806c1.07,0.897 1.784,2.065 2.256,3.382c1.504,-0.894 3.025,-1.681 4.436,-2.381c2.931,-1.454 6.815,-2.976 10.817,-3.903c3.993,-0.926 8.154,-1.273 11.611,-0.326c0.78,0.213 1.372,0.723 1.812,1.306s0.744,1.262 0.948,1.868a0.464,0.464 0 1 1 -0.879,0.297c-0.185,-0.548 -0.451,-1.128 -0.811,-1.606c-0.359,-0.476 -0.793,-0.827 -1.315,-0.97c-3.242,-0.887 -7.226,-0.576 -11.156,0.335m-36.986,3.916a12.5,12.5 0 0 0 -2.257,-0.889c-4.049,-1.162 -8.356,-0.817 -12.249,0.671c3.131,1.473 5.493,3.898 6.869,6.763c2.058,-2.553 4.694,-4.804 7.637,-6.545m-8.278,7.375c-1.353,-3.099 -3.92,-5.703 -7.417,-7.097c-3.979,1.8 -7.409,4.803 -9.525,8.562c-1.014,1.8 -2.139,5.898 -2.245,9.788c-0.053,1.939 0.149,3.783 0.718,5.241c0.564,1.448 1.473,2.48 2.83,2.9c2.335,0.721 4.872,0.304 7.229,-0.749c2.355,-1.053 4.487,-2.722 5.98,-4.432l0.009,-0.01q-0.147,-0.431 -0.276,-0.837c-1.383,-4.352 -0.539,-8.473 1.914,-12.239q0.374,-0.572 0.783,-1.127m-1.727,13.349q-0.044,-0.133 -0.085,-0.265c-1.286,-4.045 -0.519,-7.88 1.807,-11.45q0.197,-0.303 0.406,-0.6c1.324,3.904 0.799,8.44 -2.128,12.315m0.358,1.047c3.608,-4.421 4.183,-9.775 2.43,-14.26c2.127,-2.751 4.96,-5.171 8.147,-6.977c5.212,3.318 6.863,10.255 7.033,16.456c0.084,3.081 -0.675,6.23 -2.324,8.6c-1.638,2.353 -4.161,3.955 -7.683,3.975c-2.035,0.012 -3.618,-1.039 -4.876,-2.596c-1.208,-1.494 -2.085,-3.42 -2.727,-5.198m30.625,-18.885c-3.209,2.035 -6.12,4.547 -7.533,7.726c-0.36,0.81 -0.735,2.259 -0.732,3.629c0.003,1.398 0.391,2.506 1.322,2.95c1.067,0.509 2.021,0.458 2.875,0.065c0.874,-0.401 1.671,-1.176 2.353,-2.156c1.369,-1.968 2.162,-4.606 2.192,-6.124c0.044,-2.165 -0.035,-4.269 -0.477,-6.09" fill-rule="evenodd" fill="#F23030"/>
  <path id="svg_75" d="m570.6,48.4l0,-6.4l-3.2,0l0,6.4l-6.4,0l0,3.2l6.4,0l0,6.4l3.2,0l0,-6.4l6.4,0l0,-3.2l-6.4,0zm-519,87l0,-6.4l-3.2,0l0,6.4l-6.4,0l0,3.2l6.4,0l0,6.4l3.2,0l0,-6.4l6.4,0l0,-3.2l-6.4,0z" fill="#FFB700"/>
  <path id="svg_76" clip-rule="evenodd" d="m88,97a8,8 0 1 1 -16,0a8,8 0 0 1 16,0m-12.443,0a4.444,4.444 0 1 0 8.888,0a4.444,4.444 0 0 0 -8.888,0" fill-rule="evenodd" fill="#FF5975"/>
  <path id="svg_77" clip-rule="evenodd" d="m210,548a8,8 0 1 1 -16,0a8,8 0 0 1 16,0m-12.444,0a4.445,4.445 0 1 0 8.89,-0.001a4.445,4.445 0 0 0 -8.89,0.001" fill-rule="evenodd" fill="#0FC0C5"/>
  <path id="svg_78" clip-rule="evenodd" d="m236.516,523.011a1.763,1.763 0 1 1 2.495,-2.494l3.742,3.742a1.763,1.763 0 1 1 -2.495,2.494l-3.742,-3.742zm8.731,8.731a1.764,1.764 0 0 1 2.494,-2.495l3.742,3.742a1.764,1.764 0 0 1 -2.494,2.495l-3.742,-3.742zm-8.731,3.742a1.766,1.766 0 0 0 2.495,0l3.742,-3.742a1.764,1.764 0 1 0 -2.495,-2.495l-3.742,3.742a1.764,1.764 0 0 0 0,2.495m11.222,-8.729a1.764,1.764 0 1 1 -2.495,-2.495l3.742,-3.742a1.764,1.764 0 1 1 2.495,2.495l-3.742,3.742z" fill-rule="evenodd" fill="#FF5975"/>
  <path id="svg_79" clip-rule="evenodd" d="m593.516,82.011a1.764,1.764 0 1 1 2.495,-2.494l3.742,3.742a1.764,1.764 0 1 1 -2.495,2.494l-3.742,-3.742zm8.731,8.73a1.764,1.764 0 1 1 2.494,-2.494l3.742,3.742a1.764,1.764 0 0 1 -2.494,2.495l-3.742,-3.743zm-8.731,3.743a1.765,1.765 0 0 0 2.495,0l3.742,-3.742a1.764,1.764 0 1 0 -2.495,-2.495l-3.742,3.742a1.764,1.764 0 0 0 0,2.495m11.222,-8.73a1.764,1.764 0 0 1 -2.495,-2.494l3.742,-3.742a1.764,1.764 0 0 1 2.495,2.495l-3.742,3.741z" fill-rule="evenodd" fill="#0FC0C5"/>
  <path id="svg_81" clip-rule="evenodd" d="m492,505.25l-9,-2.25l2.25,9l-2.25,9l9,-2.25l9,2.25l-2.25,-9l2.25,-9l-9,2.25zm7.626,-0.876l-7.626,1.907l-7.626,-1.907l1.907,7.626l-1.907,7.626l7.626,-1.907l7.626,1.907l-1.907,-7.626l1.907,-7.626z" fill-rule="evenodd" fill="#fff"/>
  <path id="svg_83" d="m566.631,477.5l7.369,-27l-5.91,0l-4.491,18.605l-0.077,0l-4.682,-18.605l-5.642,0l-4.759,18.378l-0.077,0l-4.336,-18.378l-6.026,0l7.254,27l6.102,0l4.567,-18.378l0.077,0l4.644,18.378l5.987,0z" fill="#fff"/>
  <path id="svg_85" clip-rule="evenodd" d="m494.333,416l9.334,9.297l3.939,-3.924l9.394,8.174l0,3.453l-9.273,-7.992l-4.06,4.045l-9.334,-9.296l-9.333,9.259l0,-3.719l9.333,-9.297z" fill-rule="evenodd" fill="#fff"/>
  <circle id="svg_86" fill="#fff" r="4" cy="413" cx="510"/>
  <path id="svg_88" clip-rule="evenodd" d="m85,311.5l12,-19.059l-1.5,-7.941l-20.89,0l-1.61,7.941l12,19.059zm0,-2.815l10.417,-16.544l-1.16,-6.141l-18.42,0l-1.248,6.15l10.411,16.535z" fill-rule="evenodd" fill="#fff"/>
  <path id="svg_89" clip-rule="evenodd" d="m84.25,309.25l0,-11.802l1.5,0l0,11.802l-1.5,0zm-12.75,-30.75l3,7.5l21,0l3,-7.5l-27,0zm2.207,1.494l1.804,4.512l18.979,0l1.804,-4.512l-22.587,0z" fill-rule="evenodd" fill="#fff"/>
  <path id="svg_90" clip-rule="evenodd" d="m85,289.75a3.75,3.75 0 1 0 0,7.5a3.75,3.75 0 0 0 0,-7.5m-5.25,3.75a5.25,5.25 0 1 1 10.5,0a5.25,5.25 0 0 1 -10.5,0" fill-rule="evenodd" fill="#fff"/>
  <path id="svg_92" clip-rule="evenodd" d="m224.5,99.667l11.667,-11.667l3.333,3.333l-11.667,11.667l-3.333,0l0,-3.333z" fill-rule="evenodd" fill="#fff"/>
  <path id="svg_93" clip-rule="evenodd" d="m212.5,89.5l19.5,0l0,1.5l-18,0l0,24l19.5,0l0,-15l1.5,0l0,16.5l-22.5,0l0,-27z" fill-rule="evenodd" fill="#fff"/>
  <path id="svg_94" clip-rule="evenodd" d="m223,104.5l-7.5,0l0,-1.5l7.5,0l0,1.5zm0,9l-7.5,0l0,-1.5l7.5,0l0,1.5z" fill-rule="evenodd" fill="#fff"/>
  <path id="svg_95" clip-rule="evenodd" d="m218.5,112.75l0,-9l1.5,0l0,9l-1.5,0z" fill-rule="evenodd" fill="#fff"/>
  <path id="svg_97" clip-rule="evenodd" d="m269.5,131.5l12,0l0,4.5l-1,0l0,-3.5l-10,0l0,13l4.5,0l0,1l-5.5,0l0,-15z" fill-rule="evenodd" fill="#fff"/>
  <path id="svg_98" clip-rule="evenodd" d="m286,137l-10,0l0,12l10,0l0,-12zm-11,-1l0,14l12,0l0,-14l-12,0z" fill-rule="evenodd" fill="#fff"/>
  <path id="svg_99" clip-rule="evenodd" d="m280.5,146l0,-6l1,0l0,6l-1,0z" fill-rule="evenodd" fill="#fff"/>
  <path id="svg_100" clip-rule="evenodd" d="m284,143.5l-6,0l0,-1l6,0l0,1z" fill-rule="evenodd" fill="#fff"/>
  <path id="svg_101" d="m93,176l462,0l0,18.94l-462,0l0,-18.94z" fill="#fff"/>
  <path id="svg_102" d="m96.91,179.786c0,-0.72 0.584,-1.304 1.304,-1.304l11.732,0l0,13.036l-11.732,0c-0.72,0 -1.304,-0.584 -1.304,-1.304l0,-10.428z" fill="#E5EEFF"/>
  <path id="svg_103" clip-rule="evenodd" d="m101.148,187.933l4.563,0l0,-5.866l-4.563,0l0,5.866zm-0.326,-6.192l0,6.518l5.215,0l0,-6.518l-5.215,0zm1.304,2.607l2.607,0l0,0.326l-2.607,0l0,-0.326zm2.607,-0.977l-2.607,0l0,0.326l2.607,0l0,-0.326zm-2.607,1.955l2.607,0l0,0.326l-2.607,0l0,-0.326zm1.629,0.978l-1.629,0l0,0.326l1.629,0l0,-0.326zm10.426,-4.237l1.63,0l0,2.281l-1.63,0l0,-2.281zm-0.326,2.607l0,-2.933l2.282,0l0,2.933l-2.282,0zm3.259,-2.607l1.63,0l0,2.281l-1.63,0l0,-2.281zm-0.325,2.607l0,-2.933l2.281,0l0,2.933l-2.281,0zm-0.978,0.978l-1.63,0l0,2.281l1.63,0l0,-2.281zm-1.956,-0.326l0,2.933l2.282,0l0,-2.933l-2.282,0zm3.259,0.326l1.63,0l0,2.281l-1.63,0l0,-2.281zm-0.325,2.607l0,-2.933l2.281,0l0,2.933l-2.281,0z" fill-rule="evenodd" fill="#1A1A1A"/>
  <path id="svg_104" d="m110.108,178.645l11.57,0c0.63,0 1.14,0.511 1.14,1.141l0,10.428c0,0.63 -0.51,1.141 -1.14,1.141l-11.57,0l0,-12.71z" stroke-width="0.326" stroke="#E8E8E8"/>
  <path id="svg_105" clip-rule="evenodd" d="m134.064,182.067l-1.955,0l0,6.192l1.955,0l0,-6.192zm0.326,0l0,6.192l2.933,0l0,-6.192l-2.933,0zm-2.607,-0.326l0,6.844l5.866,0l0,-6.844l-5.866,0zm1.63,0.978l-0.652,0l0,0.978l0.652,0l0,-0.978zm-0.978,-0.326l0,1.63l1.304,0l0,-1.63l-1.304,0zm0.978,2.281l-0.652,0l0,0.978l0.652,0l0,-0.978zm-0.978,-0.326l0,1.63l1.304,0l0,-1.63l-1.304,0zm0.326,2.282l0.652,0l0,0.977l-0.652,0l0,-0.977zm-0.326,1.303l0,-1.629l1.304,0l0,1.629l-1.304,0z" fill-rule="evenodd" fill="#1A1A1A"/>
  <path id="svg_106" d="m129.501,178.808l10.429,0l0,-0.652l-10.429,0l0,0.652zm11.406,0.978l0,10.428l0.652,0l0,-10.428l-0.652,0zm-0.977,11.406l-10.429,0l0,0.652l10.429,0l0,-0.652zm-11.407,-0.978l0,-10.428l-0.652,0l0,10.428l0.652,0zm0.978,0.978a0.98,0.98 0 0 1 -0.978,-0.978l-0.652,0c0,0.9 0.73,1.63 1.63,1.63l0,-0.652zm11.406,-0.978c0,0.54 -0.437,0.978 -0.977,0.978l0,0.652c0.9,0 1.629,-0.73 1.629,-1.63l-0.652,0zm-0.977,-11.406c0.54,0 0.977,0.438 0.977,0.978l0.652,0c0,-0.9 -0.729,-1.63 -1.629,-1.63l0,0.652zm-10.429,-0.652c-0.9,0 -1.63,0.73 -1.63,1.63l0.652,0c0,-0.54 0.438,-0.978 0.978,-0.978l0,-0.652z" fill="#E8E8E8"/>
  <path id="svg_107" d="m239.266,179.786c0,-0.72 0.583,-1.304 1.303,-1.304l10.429,0c0.72,0 1.304,0.584 1.304,1.304l0,10.428c0,0.72 -0.584,1.304 -1.304,1.304l-10.429,0c-0.72,0 -1.303,-0.584 -1.303,-1.304l0,-10.428z" fill="#E5EEFF"/>
  <path id="svg_108" clip-rule="evenodd" d="m243.502,182.067l1.084,4.989l1.141,-0.768l1.197,1.645l1.141,-0.768l-1.198,-1.644l1.14,-0.768l-4.505,-2.686z" fill-rule="evenodd" fill="#1A1A1A"/>
  <path id="svg_109" d="m254.908,179.786c0,-0.72 0.584,-1.304 1.304,-1.304l10.429,0c0.72,0 1.303,0.584 1.303,1.304l0,10.428c0,0.72 -0.583,1.304 -1.303,1.304l-10.429,0c-0.72,0 -1.304,-0.584 -1.304,-1.304l0,-10.428z" fill="#F4F4F4"/>
  <path id="svg_110" d="m263.039,182.234l1.152,1.152l-3.687,3.687l-1.152,-1.152l3.687,-3.687z" stroke-width="0.326" stroke="#1A1A1A"/>
  <path id="svg_111" d="m262.348,182.811l1.267,1.267l-0.115,0.115l-1.267,-1.267l0.115,-0.115z" stroke-width="0.163" stroke="#1A1A1A" fill="#1A1A1A"/>
  <path id="svg_112" d="m263.73,182.004l0.692,0.692l-0.231,0.23l-0.692,-0.691l0.231,-0.231zm-4.812,5.503l0.159,-0.477l0.319,0.318l-0.478,0.159z" stroke-width="0.326" stroke="#1A1A1A" fill="#1A1A1A"/>
  <path id="svg_113" d="m259.121,186.152l0.231,-0.231l1.152,1.153l-0.231,0.23l-1.613,0.461l0.461,-1.613z" stroke-width="0.326" stroke="#1A1A1A"/>
  <path id="svg_114" d="m270.553,179.786c0,-0.72 0.583,-1.304 1.303,-1.304l10.429,0c0.72,0 1.304,0.584 1.304,1.304l0,10.428c0,0.72 -0.584,1.304 -1.304,1.304l-10.429,0c-0.72,0 -1.303,-0.584 -1.303,-1.304l0,-10.428z" fill="#F4F4F4"/>
  <path id="svg_115" d="m275.306,184.75l3.912,-2.914l1.018,1.018l-2.914,3.912l-2.016,-2.016zm-0.247,-0.018c0.073,0.337 0.087,1.142 -0.439,1.668m-0.022,-0.022l1.097,1.098m1.645,-0.461c-0.337,-0.074 -1.141,-0.088 -1.668,0.439" stroke-width="0.326" stroke="#1A1A1A"/>
  <path id="svg_116" d="m274.707,186.718l0.647,0.648l-0.333,0.333l-0.871,-0.424l0.557,-0.557z" stroke-width="0.326" stroke="#1A1A1A" fill="#1A1A1A"/>
  <path id="svg_117" d="m286.195,179.786c0,-0.72 0.584,-1.304 1.304,-1.304l10.429,0c0.72,0 1.303,0.584 1.303,1.304l0,10.428c0,0.72 -0.583,1.304 -1.303,1.304l-10.429,0c-0.72,0 -1.304,-0.584 -1.304,-1.304l0,-10.428z" fill="#F4F4F4"/>
  <path id="svg_118" clip-rule="evenodd" d="m294.247,182.433l1.054,1.053a0.327,0.327 0 0 1 0,0.461l-2.393,2.392l-1.514,-1.514l2.392,-2.392a0.325,0.325 0 0 1 0.461,0m-0.691,-0.231a0.653,0.653 0 0 1 0.922,0l1.053,1.054a0.65,0.65 0 0 1 0,0.921l-3.687,3.688a0.653,0.653 0 0 1 -0.922,0l-1.053,-1.054a0.65,0.65 0 0 1 0,-0.922l3.687,-3.687z" fill-rule="evenodd" fill="#1A1A1A"/>
  <path id="svg_119" d="m301.838,178.482l0.326,0l0,13.036l-0.326,0l0,-13.036z" fill="#E8E8E8"/>
  <rect id="svg_120" rx="1.304" fill="#F4F4F4" y="178.482" x="304.771" height="13.036" width="13.036"/>
  <path id="svg_121" d="m310.448,187.067l0,-5.374l-1.815,0l0,-0.642l4.401,0l0,0.642l-1.815,0l0,5.374l-0.771,0z" fill="#1A1A1A"/>
  <path id="svg_122" d="m320.414,179.786c0,-0.72 0.584,-1.304 1.304,-1.304l10.428,0c0.72,0 1.304,0.584 1.304,1.304l0,10.428c0,0.72 -0.584,1.304 -1.304,1.304l-10.428,0c-0.72,0 -1.304,-0.584 -1.304,-1.304l0,-10.428z" fill="#F4F4F4"/>
  <path id="svg_123" d="m323.672,183.371c0,-0.36 0.292,-0.652 0.652,-0.652l2.607,0l0,4.562l-2.607,0a0.65,0.65 0 0 1 -0.652,-0.651l0,-3.259z" fill="#1A1A1A"/>
  <path id="svg_124" d="m325.06,185.335l-0.09,0.313l0.653,0l-0.09,-0.313a12,12 0 0 1 -0.121,-0.418l-0.11,-0.426l-0.015,0l-0.11,0.43a8,8 0 0 1 -0.117,0.414m-0.857,1.361l0.833,-2.557l0.532,0l0.833,2.557l-0.477,0l-0.199,-0.692l-0.861,0l-0.199,0.692l-0.462,0z" fill="#fff"/>
  <path id="svg_125" d="m329.165,186.743a0.7,0.7 0 0 1 -0.27,-0.062a1,1 0 0 1 -0.254,-0.188l-0.012,0l-0.039,0.203l-0.356,0l0,-2.761l0.45,0l0,0.712l-0.012,0.321q0.122,-0.106 0.263,-0.172a0.7,0.7 0 0 1 0.293,-0.067a0.7,0.7 0 0 1 0.559,0.266a0.9,0.9 0 0 1 0.149,0.305q0.051,0.18 0.051,0.403q0,0.247 -0.071,0.442a1,1 0 0 1 -0.18,0.324a0.8,0.8 0 0 1 -0.262,0.204a0.7,0.7 0 0 1 -0.309,0.07m-0.094,-0.371a0.4,0.4 0 0 0 0.321,-0.165q0.129,-0.168 0.129,-0.496q0,-0.29 -0.098,-0.45q-0.097,-0.16 -0.316,-0.16q-0.204,0 -0.423,0.215l0,0.895q0.102,0.09 0.2,0.125a0.6,0.6 0 0 0 0.187,0.036" fill="#1A1A1A"/>
  <path id="svg_126" clip-rule="evenodd" d="m327.583,181.741l0.652,0l0,0.326l-0.652,0l0,5.866l0.652,0l0,0.326l-1.63,0l0,-0.326l0.652,0l0,-5.866l-0.652,0l0,-0.326l0.978,0z" fill-rule="evenodd" fill="#1A1A1A"/>
  <path id="svg_127" d="m336.059,179.786c0,-0.72 0.583,-1.304 1.303,-1.304l16.947,0c0.72,0 1.304,0.584 1.304,1.304l0,10.428c0,0.72 -0.584,1.304 -1.304,1.304l-16.947,0c-0.72,0 -1.303,-0.584 -1.303,-1.304l0,-10.428z" fill="#F4F4F4"/>
  <path id="svg_128" clip-rule="evenodd" d="m345.183,182.393l-5.215,0l0,5.214l5.215,0l0,-5.214zm-5.54,-0.326l0,5.866l5.866,0l0,-5.866l-5.866,0zm9.127,2.281l3.259,0l-1.63,1.63l-1.629,-1.63z" fill-rule="evenodd" fill="#1A1A1A"/>
  <path id="svg_129" d="m358.219,179.786c0,-0.72 0.583,-1.304 1.303,-1.304l16.947,0c0.72,0 1.304,0.584 1.304,1.304l0,10.428c0,0.72 -0.584,1.304 -1.304,1.304l-16.947,0c-0.72,0 -1.303,-0.584 -1.303,-1.304l0,-10.428z" fill="#F4F4F4"/>
  <path id="svg_130" d="m367.496,182.402a0.163,0.163 0 0 0 -0.163,-0.163l-1.466,0a0.163,0.163 0 0 0 0,0.326l1.303,0l0,1.304a0.163,0.163 0 0 0 0.326,0l0,-1.467zm-5.578,5.646l5.531,-5.53l-0.231,-0.231l-5.53,5.531l0.23,0.23z" fill="#1A1A1A"/>
  <path id="svg_131" clip-rule="evenodd" d="m370.93,184.348l3.259,0l-1.63,1.63l-1.629,-1.63z" fill-rule="evenodd" fill="#1A1A1A"/>
  <path id="svg_132" d="m380.381,179.786c0,-0.72 0.583,-1.304 1.303,-1.304l10.429,0c0.72,0 1.304,0.584 1.304,1.304l0,10.428c0,0.72 -0.584,1.304 -1.304,1.304l-10.429,0c-0.72,0 -1.303,-0.584 -1.303,-1.304l0,-10.428z" fill="#F4F4F4"/>
  <path id="svg_133" clip-rule="evenodd" d="m389.505,182.393l0,5.214l-5.214,0l0,-5.214l5.214,0zm-3.744,2.698l-1.144,0.805l0,1.385l4.563,0l0,-0.433l-1.205,-1.1l-0.948,0.649l-1.266,-1.306zm3.419,-2.373l-4.563,0l0,2.787l1.182,-0.831l1.269,1.308l0.935,-0.64l1.177,1.074l0,-3.698zm-0.978,0.652a0.652,0.652 0 1 1 0,1.304a0.652,0.652 0 0 1 0,-1.304" fill-rule="evenodd" fill="#1A1A1A"/>
  <path id="svg_134" d="m396.023,179.786c0,-0.72 0.584,-1.304 1.304,-1.304l10.429,0c0.72,0 1.303,0.584 1.303,1.304l0,10.428c0,0.72 -0.583,1.304 -1.303,1.304l-10.429,0c-0.72,0 -1.304,-0.584 -1.304,-1.304l0,-10.428z" fill="#F4F4F4"/>
  <path id="svg_135" clip-rule="evenodd" d="m404.035,182.434c0.201,0.824 -0.184,1.463 -1.122,1.916a51,51 0 0 0 -0.204,0.867a7,7 0 0 1 0.304,-0.138c0.141,-0.061 0.213,-0.09 0.557,-0.23c0.467,-0.19 0.753,-0.193 0.724,0.138c-0.012,0.138 -0.1,0.277 -0.333,0.587l-0.019,0.025l-0.133,0.177q-0.12,0.165 -0.239,0.322q0.207,-0.121 0.484,-0.29c0.442,-0.271 0.777,-0.408 1.022,-0.408c0.307,0 0.472,0.21 0.464,0.55l-0.326,-0.007c0.004,-0.171 -0.032,-0.217 -0.138,-0.217c-0.168,0 -0.458,0.119 -0.852,0.36q-0.632,0.387 -0.909,0.527a0.8,0.8 0 0 1 -0.228,0.092c-0.099,0.016 -0.207,-0.022 -0.212,-0.163c-0.002,-0.062 0.019,-0.099 0.056,-0.145q0.296,-0.378 0.615,-0.814l0.11,-0.147l0.045,-0.059q0.15,-0.198 0.215,-0.305a2,2 0 0 0 -0.223,0.079c-0.342,0.138 -0.413,0.167 -0.551,0.227c-0.198,0.086 -0.37,0.168 -0.524,0.253l-0.019,0.087q-0.176,0.723 -0.374,1.237l3.249,0l0,0.326l-3.385,0c-0.245,0.53 -0.517,0.839 -0.825,0.929c-0.233,0.069 -0.424,0.016 -0.517,-0.162c-0.071,-0.135 -0.069,-0.321 -0.013,-0.546q0.026,-0.105 0.068,-0.221l-1.195,0l0,-0.326l1.335,0a4,4 0 0 1 0.635,-0.918c0.234,-0.253 0.468,-0.444 0.753,-0.616q0.108,-0.49 0.209,-0.91a8,8 0 0 1 -1.219,0.338l-0.064,-0.32q0.828,-0.166 1.378,-0.406q0.3,-1.193 0.538,-1.724c0.299,-0.668 0.692,-0.664 0.863,0.035m-2.309,4.847l-0.574,0a2,2 0 0 0 -0.102,0.3c-0.038,0.155 -0.039,0.268 -0.014,0.316c0.011,0.022 0.039,0.029 0.136,0.001q0.28,-0.082 0.554,-0.617m0.493,-1.392a3.7,3.7 0 0 0 -0.554,0.541a3.5,3.5 0 0 0 -0.355,0.525l0.564,0.001q0.179,-0.435 0.345,-1.067m-1.525,-0.889l0.217,0.217l-0.435,0.435l0.435,0.434l-0.217,0.217l-0.435,-0.434l-0.434,0.434l-0.218,-0.217l0.435,-0.434l-0.435,-0.435l0.218,-0.217l0.434,0.434l0.435,-0.434zm2.775,-2.467q-0.197,0.44 -0.448,1.393c0.612,-0.369 0.838,-0.841 0.697,-1.415c-0.092,-0.379 -0.07,-0.379 -0.249,0.022m108.838,2.548l-0.233,0.245l-1.396,-1.467l1.396,-1.466l0.233,0.244l-1.008,1.059l2.638,0a1.955,1.955 0 0 1 0,3.911l-1.63,0l0,-0.326l1.63,0a1.629,1.629 0 1 0 0,-3.259l-2.639,0l1.009,1.059z" fill-rule="evenodd" fill="#1A1A1A"/>
  <path id="svg_136" d="m508.071,178.808l10.429,0l0,-0.652l-10.429,0l0,0.652zm11.407,0.978l0,10.428l0.651,0l0,-10.428l-0.651,0zm-0.978,11.406l-10.429,0l0,0.652l10.429,0l0,-0.652zm-11.407,-0.978l0,-10.428l-0.651,0l0,10.428l0.651,0zm0.978,0.978a0.98,0.98 0 0 1 -0.978,-0.978l-0.651,0c0,0.9 0.729,1.63 1.629,1.63l0,-0.652zm11.407,-0.978c0,0.54 -0.438,0.978 -0.978,0.978l0,0.652c0.9,0 1.629,-0.73 1.629,-1.63l-0.651,0zm-0.978,-11.406c0.54,0 0.978,0.438 0.978,0.978l0.651,0c0,-0.9 -0.729,-1.63 -1.629,-1.63l0,0.652zm-10.429,-0.652c-0.9,0 -1.629,0.73 -1.629,1.63l0.651,0c0,-0.54 0.438,-0.978 0.978,-0.978l0,-0.652z" fill="#E8E8E8"/>
  <path id="svg_137" clip-rule="evenodd" d="m530.914,184.022l-2.638,0a1.63,1.63 0 0 0 0,3.259l1.629,0l0,0.326l-1.629,0a1.955,1.955 0 1 1 0,-3.911l2.638,0l-1.009,-1.059l0.233,-0.244l1.397,1.466l-1.397,1.467l-0.233,-0.245l1.009,-1.059z" fill-rule="evenodd" fill="#1A1A1A"/>
  <path id="svg_138" d="m523.714,178.808l10.429,0l0,-0.652l-10.429,0l0,0.652zm11.406,0.978l0,10.428l0.652,0l0,-10.428l-0.652,0zm-0.977,11.406l-10.429,0l0,0.652l10.429,0l0,-0.652zm-11.407,-0.978l0,-10.428l-0.652,0l0,10.428l0.652,0zm0.978,0.978a0.98,0.98 0 0 1 -0.978,-0.978l-0.652,0c0,0.9 0.73,1.63 1.63,1.63l0,-0.652zm11.406,-0.978c0,0.54 -0.437,0.978 -0.977,0.978l0,0.652a1.63,1.63 0 0 0 1.629,-1.63l-0.652,0zm-0.977,-11.406c0.54,0 0.977,0.438 0.977,0.978l0.652,0c0,-0.9 -0.73,-1.63 -1.629,-1.63l0,0.652zm-10.429,-0.652c-0.9,0 -1.63,0.73 -1.63,1.63l0.652,0c0,-0.54 0.438,-0.978 0.978,-0.978l0,-0.652z" fill="#E8E8E8"/>
  <path id="svg_139" clip-rule="evenodd" d="m545.83,186.002l1.675,1.674l-0.257,0.257l-1.674,-1.674a2.383,2.383 0 1 1 0.256,-0.257m-1.808,0.465a2.017,2.017 0 1 0 -0.001,-4.033a2.017,2.017 0 0 0 0.001,4.033" fill-rule="evenodd" fill="#1A1A1A"/>
  <path id="svg_140" d="m539.358,178.808l10.429,0l0,-0.652l-10.429,0l0,0.652zm11.407,0.978l0,10.428l0.652,0l0,-10.428l-0.652,0zm-0.978,11.406l-10.429,0l0,0.652l10.429,0l0,-0.652zm-11.406,-0.978l0,-10.428l-0.652,0l0,10.428l0.652,0zm0.977,0.978a0.977,0.977 0 0 1 -0.977,-0.978l-0.652,0c0,0.9 0.729,1.63 1.629,1.63l0,-0.652zm11.407,-0.978c0,0.54 -0.438,0.978 -0.978,0.978l0,0.652c0.9,0 1.63,-0.73 1.63,-1.63l-0.652,0zm-0.978,-11.406c0.54,0 0.978,0.438 0.978,0.978l0.652,0c0,-0.9 -0.73,-1.63 -1.63,-1.63l0,0.652zm-10.429,-0.652c-0.9,0 -1.629,0.73 -1.629,1.63l0.652,0c0,-0.54 0.437,-0.978 0.977,-0.978l0,-0.652z" fill="#E8E8E8"/>
 </g>
</svg>